<svg width="22" height="16" viewBox="0 0 22 16" fill="none" xmlns="http://www.w3.org/2000/svg">
<path d="M18.2701 1.32998C16.9401 0.709985 15.5001 0.259985 14.0001 -1.5037e-05C13.987 -0.00043564 13.9739 0.00203244 13.9618 0.00721572C13.9497 0.012399 13.9389 0.0201716 13.9301 0.0299852C13.7501 0.359985 13.5401 0.789985 13.4001 1.11998C11.8091 0.879985 10.1911 0.879985 8.60012 1.11998C8.46012 0.779985 8.25012 0.359985 8.06012 0.0299852C8.05012 0.00998517 8.02012 -1.5037e-05 7.99012 -1.5037e-05C6.49012 0.259985 5.06012 0.709985 3.72012 1.32998C3.71012 1.32998 3.70012 1.33998 3.69012 1.34998C0.970117 5.41998 0.220117 9.37998 0.590117 13.3C0.590117 13.32 0.600117 13.34 0.620117 13.35C2.42012 14.67 4.15012 15.47 5.86012 16C5.89012 16.01 5.92012 16 5.93012 15.98C6.33012 15.43 6.69012 14.85 7.00012 14.24C7.02012 14.2 7.00012 14.16 6.96012 14.15C6.39012 13.93 5.85012 13.67 5.32012 13.37C5.28012 13.35 5.28012 13.29 5.31012 13.26C5.42012 13.18 5.53012 13.09 5.64012 13.01C5.66012 12.99 5.69012 12.99 5.71012 13C9.15012 14.57 12.8601 14.57 16.2601 13C16.2801 12.99 16.3101 12.99 16.3301 13.01C16.4401 13.1 16.5501 13.18 16.6601 13.27C16.7001 13.3 16.7001 13.36 16.6501 13.38C16.1301 13.69 15.5801 13.94 15.0101 14.16C14.9701 14.17 14.9601 14.22 14.9701 14.25C15.2901 14.86 15.6501 15.44 16.0401 15.99C16.0701 16 16.1001 16.01 16.1301 16C17.8501 15.47 19.5801 14.67 21.3801 13.35C21.4001 13.34 21.4101 13.32 21.4101 13.3C21.8501 8.76998 20.6801 4.83998 18.3101 1.34998C18.3001 1.33998 18.2901 1.32998 18.2701 1.32998ZM7.52012 10.91C6.49012 10.91 5.63012 9.95998 5.63012 8.78998C5.63012 7.61998 6.47012 6.66998 7.52012 6.66998C8.58012 6.66998 9.42012 7.62998 9.41012 8.78998C9.41012 9.95998 8.57012 10.91 7.52012 10.91ZM14.4901 10.91C13.4601 10.91 12.6001 9.95998 12.6001 8.78998C12.6001 7.61998 13.4401 6.66998 14.4901 6.66998C15.5501 6.66998 16.3901 7.62998 16.3801 8.78998C16.3801 9.95998 15.5501 10.91 14.4901 10.91Z" fill="white"/>
</svg>
