<svg width="197" height="160" viewBox="0 0 197 160" fill="none" xmlns="http://www.w3.org/2000/svg">
<path d="M62.4077 8.30322H194.712V49.7101L168.172 78.0194H62.4077V8.30322Z" stroke="#3DDEED" stroke-opacity="0.8"/>
<path d="M64.521 10.9042H192.273V48.4089L166.709 75.5808H64.521V10.9042Z" stroke="#3DDEED" stroke-opacity="0.8"/>
<path d="M138.476 5.52722V7.96571H195.049V16.2566L197 13.9806V5.52722H138.476Z" fill="#3DDEED" fill-opacity="0.8"/>
<path d="M77.5141 5.05185H77.7504L77.9004 4.86921L81.4894 0.5H87.5809V6.32777H63.099L64.1016 5.05185H77.5141Z" stroke="#3DDEED" stroke-opacity="0.8"/>
<path d="M59.957 65.0263L62.0704 62.913V78.3567H74.588L72.6372 80.3075H59.957V65.0263Z" fill="#3DDEED" fill-opacity="0.8"/>
<path d="M54.2671 68.4403V36.2522L60.7697 32.0114V32.0255V62.1002L58.3312 64.3761V71.529L54.2671 68.4403Z" fill="#3DDEED" fill-opacity="0.8"/>
<path d="M54 64V106.239H82.7009L83 138" stroke="#3DDEED" stroke-opacity="0.8"/>
<path d="M17.4707 77.5L23.1245 88L17.4707 98.5L6.2218 98.5L0.567953 88L6.2218 77.5L17.4707 77.5Z" stroke="#3DDEED" stroke-opacity="0.8"/>
<path d="M20.3079 88L16.0771 95.1176L7.61555 95.1176L3.38478 88L7.61555 80.8823L16.0771 80.8823L20.3079 88Z" fill="#3DDEED" fill-opacity="0.8"/>
<path d="M88.4707 138.5L94.1245 149L88.4707 159.5L77.2218 159.5L71.568 149L77.2218 138.5L88.4707 138.5Z" stroke="#3DDEED" stroke-opacity="0.8"/>
<path d="M91.3079 149L87.0771 156.118L78.6156 156.118L74.3848 149L78.6156 141.882L87.0771 141.882L91.3079 149Z" fill="#3DDEED" fill-opacity="0.8"/>
<path d="M54.4297 81.283H43.05L36.71 88.4359H23.0544" stroke="#3DDEED" stroke-opacity="0.8"/>
<path d="M168.388 90.8743V79.6572H105.638L109.54 84.6968H152.457L156.358 90.8743H168.388Z" fill="#3DDEED" fill-opacity="0.8" stroke="#3DDEED" stroke-opacity="0.8"/>
</svg>
