<svg width="138" height="86" viewBox="0 0 138 86" fill="none" xmlns="http://www.w3.org/2000/svg">
<g id="Group 10">
<path id="Rectangle 14" d="M2.45068 77.3936L134.755 77.3936V35.9867L108.215 7.67738H2.45068L2.45068 77.3936Z" stroke="#3DDEED" stroke-opacity="0.8"/>
<path id="Rectangle 15" d="M4.56396 74.7925H132.316V37.2877L106.752 10.1159H4.56396L4.56396 74.7925Z" stroke="#3DDEED" stroke-opacity="0.8"/>
<path id="Vector 12" d="M78.5193 80.1696V77.7311H135.092V69.4402L137.043 71.7161V80.1696H78.5193Z" fill="#3DDEED" fill-opacity="0.8"/>
<path id="Vector 13" d="M17.557 80.6449H17.7934L17.9434 80.8276L21.5324 85.1968H27.6238V79.369H3.14201L4.14452 80.6449H17.557Z" stroke="#3DDEED" stroke-opacity="0.8"/>
<path id="Vector 14" d="M0 20.6705L2.11336 22.7838L2.11336 7.34005H14.6309L12.6801 5.38926H0L0 20.6705Z" fill="#3DDEED" fill-opacity="0.8"/>
<path id="Vector 16" d="M108.431 1.00001V6.03955L45.6809 6.03955L49.5825 1.00001L92.4999 1.00001L108.431 1.00001Z" fill="#3DDEED" fill-opacity="0.8" stroke="#3DDEED" stroke-opacity="0.8"/>
</g>
</svg>
