<svg width="26" height="26" viewBox="0 0 26 26" fill="none" xmlns="http://www.w3.org/2000/svg">
<path d="M23.5295 3.60163C24.0575 4.22563 24.5072 4.91683 24.864 5.66083C24.5671 5.9589 24.2143 6.19533 23.8257 6.35652C23.4372 6.51771 23.0206 6.60046 22.5999 6.60003C22.0281 6.60095 21.4666 6.44786 20.9743 6.15683L23.5295 3.60163ZM22.3983 2.46883L19.8432 5.02563C19.4811 4.41459 19.3332 3.70019 19.4231 2.99564C19.5129 2.29108 19.8353 1.63665 20.3391 1.13603C21.0831 1.49283 21.7743 1.94243 22.3983 2.46883ZM25.7999 9.80003C25.8007 8.94059 25.6861 8.08495 25.4592 7.25603C24.6592 7.84803 23.6703 8.20003 22.5999 8.20003C21.6025 8.20173 20.6296 7.89121 19.8175 7.31203L18.1311 9.00003L24.216 15.0848C25.2159 13.568 25.7999 11.752 25.7999 9.80003ZM17.7999 3.40003C17.7999 2.32803 18.1503 1.33923 18.7439 0.540827C17.915 0.313978 17.0594 0.199356 16.2 0.200027C14.3209 0.196724 12.4826 0.747711 10.9151 1.78403L17 7.86883L18.6863 6.18083C18.1081 5.369 17.7982 4.39671 17.7999 3.40003ZM15.7311 11.4C17.6163 13.5014 18.8396 16.1123 19.2479 18.9056C20.7631 18.3973 22.1275 17.5191 23.2175 16.3504L17 10.1312L15.7311 11.4ZM15.8688 9.00003L14.6 10.2672C12.499 8.38234 9.88876 7.15904 7.09595 6.75043C7.60447 5.23586 8.48271 3.87203 9.65115 2.78243L15.8688 9.00003ZM2.59995 8.20003C1.96343 8.20003 1.35298 8.45288 0.902895 8.90297C0.452808 9.35306 0.199951 9.96351 0.199951 10.6V13C0.199951 16.3948 1.54852 19.6505 3.94898 22.051C6.34945 24.4515 9.60518 25.8 13 25.8H15.4C16.0365 25.8 16.6469 25.5472 17.097 25.0971C17.5471 24.647 17.7999 24.0365 17.7999 23.4V21C17.7999 17.6053 16.4514 14.3495 14.0509 11.9491C11.6505 9.54859 8.39472 8.20003 4.99995 8.20003H2.59995ZM6.83355 14.8336C6.90786 14.7591 6.99614 14.7 7.09334 14.6597C7.19053 14.6194 7.29472 14.5986 7.39995 14.5986C7.50518 14.5986 7.60937 14.6194 7.70656 14.6597C7.80376 14.7 7.89204 14.7591 7.96635 14.8336L11.1664 18.0336C11.3166 18.1838 11.401 18.3876 11.401 18.6C11.401 18.8125 11.3166 19.0162 11.1664 19.1664C11.0161 19.3166 10.8124 19.401 10.6 19.401C10.3875 19.401 10.1838 19.3166 10.0336 19.1664L6.83355 15.9664C6.75905 15.8921 6.69994 15.8038 6.65961 15.7066C6.61928 15.6094 6.59852 15.5053 6.59852 15.4C6.59852 15.2948 6.61928 15.1906 6.65961 15.0934C6.69994 14.9962 6.75905 14.9079 6.83355 14.8336Z" fill="white"/>
</svg>
