<svg width="748" height="396" viewBox="0 0 748 396" fill="none" xmlns="http://www.w3.org/2000/svg">
<path d="M743.846 27.7758C749.934 41.0058 745.827 58.4449 732.594 78.887C719.393 99.2807 697.274 122.395 667.922 146.781C609.229 195.544 521.797 249.244 419.537 296.298C317.278 343.352 219.616 374.821 144.4 387.675C106.785 394.103 74.8415 395.866 50.765 392.625C26.6313 389.377 10.7148 381.152 4.62711 367.922C-1.46056 354.692 2.64673 337.253 15.8795 316.811C29.0809 296.417 51.1999 273.303 80.5519 248.917C139.244 200.154 226.676 146.454 328.936 99.3995C431.196 52.3454 528.857 20.8767 604.073 8.02264C641.688 1.59435 673.632 -0.168137 697.708 3.07238C721.842 6.32059 737.759 14.5458 743.846 27.7758Z" stroke="url(#paint0_linear_5_334)" stroke-width="2"/>
<defs>
<linearGradient id="paint0_linear_5_334" x1="423" y1="66" x2="510" y2="227" gradientUnits="userSpaceOnUse">
<stop stop-color="#BD00FF" stop-opacity="0"/>
<stop offset="0.305326" stop-color="#BD00FF"/>
<stop offset="1" stop-color="#BD00FF" stop-opacity="0"/>
</linearGradient>
</defs>
</svg>
